<?xml version="1.0" standalone="no"?>
<!DOCTYPE svg PUBLIC "-//W3C//DTD SVG 20010904//EN"
 "http://www.w3.org/TR/2001/REC-SVG-20010904/DTD/svg10.dtd">
<svg version="1.0" xmlns="http://www.w3.org/2000/svg"
 width="500.000000pt" height="500.000000pt" viewBox="0 0 500.000000 500.000000"
 preserveAspectRatio="xMidYMid meet">
<metadata>
Created by potrace 1.11, written by Peter Selinger 2001-2013
</metadata>
<g transform="translate(0.000000,500.000000) scale(0.100000,-0.100000)"
fill="#000000" stroke="none">
<path d="M2033 4940 c-23 -5 -54 -16 -70 -25 -27 -15 -27 -16 -3 -10 14 4 61
15 105 25 81 19 54 27 -32 10z"/>
<path d="M2145 4921 c2 -4 -28 -15 -68 -25 -82 -19 -146 -46 -147 -61 -1 -12
-104 -115 -116 -115 -4 0 -3 5 4 12 7 7 12 17 12 22 0 13 -37 -39 -52 -74 -9
-20 -12 -22 -15 -8 -2 9 3 28 11 41 9 13 13 26 10 30 -6 6 35 67 46 67 4 0 29
21 56 46 62 59 37 46 -39 -20 -71 -61 -128 -174 -118 -236 1 -12 0 -12 -7 -1
-6 8 -12 9 -16 3 -9 -15 4 -42 20 -42 8 0 14 -5 14 -11 0 -5 -4 -8 -9 -4 -5 3
-12 -3 -14 -12 -4 -14 -5 -13 -6 5 0 12 -5 22 -11 22 -5 0 -9 -8 -8 -17 3 -37
-2 -54 -14 -47 -8 5 -9 2 -5 -10 4 -10 7 -26 7 -37 0 -10 5 -19 10 -19 6 0 8
10 4 24 -3 14 -1 33 4 43 9 16 11 14 17 -12 4 -17 14 -40 21 -52 13 -20 13
-23 -1 -23 -12 0 -15 -6 -9 -22 3 -12 7 -34 8 -49 1 -15 4 -31 8 -34 3 -4 38
8 78 25 39 17 79 29 87 26 9 -4 23 -1 31 6 12 10 14 10 8 1 -9 -16 16 -17 31
-2 7 7 29 5 74 -6 35 -10 75 -17 89 -17 52 1 187 -19 269 -39 131 -34 277
-112 391 -209 88 -74 159 -124 245 -169 44 -24 85 -48 92 -54 6 -7 14 -39 16
-72 3 -33 3 -52 0 -42 -2 9 -9 15 -14 12 -5 -4 -9 -1 -9 4 0 6 -5 11 -11 11
-6 0 -8 -12 -4 -32 4 -18 7 -41 8 -50 1 -9 4 -15 8 -12 4 2 10 -7 13 -21 4
-14 11 -25 16 -25 14 0 12 -27 -2 -33 -10 -4 -10 -6 0 -6 6 -1 12 -10 12 -22
0 -33 20 -11 21 24 l1 32 14 -35 14 -35 -4 54 c-7 103 29 -14 53 -170 4 -26
15 -58 24 -72 18 -28 23 -87 7 -87 -5 0 -12 -16 -16 -36 -5 -30 -10 -35 -28
-30 -63 15 -259 47 -353 56 -59 6 -133 17 -163 25 -74 19 -186 40 -295 56 -49
7 -95 18 -101 24 -6 6 -15 26 -19 43 -6 29 -10 32 -43 33 -20 0 -46 3 -57 5
-47 10 -117 6 -152 -8 -21 -9 -69 -25 -106 -35 -71 -19 -93 -38 -84 -74 4 -15
-4 -22 -46 -34 -82 -24 -122 -28 -161 -15 -19 6 -35 15 -33 19 1 4 -9 23 -22
42 -18 26 -36 39 -70 48 -25 7 -68 23 -96 36 -27 13 -63 25 -78 28 -16 2 -32
9 -36 16 -5 8 -17 11 -29 7 -15 -5 -22 -2 -25 11 -4 16 -5 16 -12 -2 -5 -11
-13 -23 -19 -27 -5 -4 -10 -22 -10 -42 0 -40 -11 -45 -91 -46 -49 0 -98 -9
-182 -31 -38 -10 -43 -15 -43 -40 0 -21 4 -27 15 -23 10 4 15 0 15 -11 0 -11
-5 -15 -15 -11 -19 7 -20 -22 -1 -49 7 -11 28 -73 45 -137 47 -177 66 -221
114 -265 23 -22 68 -50 99 -63 32 -13 55 -27 52 -32 -10 -15 -13 -48 -5 -48 5
0 11 -9 14 -19 4 -15 18 -21 73 -26 111 -12 131 -3 181 85 23 41 61 125 84
187 53 144 85 179 143 157 8 -3 40 -56 70 -117 60 -122 178 -281 236 -320 72
-49 204 -76 365 -77 162 0 190 20 243 170 22 62 35 86 48 88 47 7 61 12 80 30
62 58 193 112 320 131 91 14 157 -3 200 -51 24 -27 28 -40 26 -74 -3 -37 -1
-42 21 -46 19 -4 27 0 33 16 6 19 7 18 11 -9 2 -16 13 -50 24 -74 13 -29 20
-59 17 -86 l-3 -41 32 19 c70 41 109 113 79 146 -20 22 -12 30 55 60 62 29 78
27 86 -10 4 -21 10 -28 20 -25 8 4 16 6 19 6 9 0 44 82 44 104 0 30 -24 56
-51 56 -45 0 -189 -87 -189 -115 0 -6 -7 -20 -15 -32 -13 -18 -18 -20 -40 -10
-18 9 -25 20 -25 40 0 16 -4 26 -10 22 -18 -11 -10 10 25 67 37 58 58 72 133
83 26 4 42 12 42 21 0 8 5 14 10 14 6 0 10 13 10 29 0 17 4 33 10 36 5 3 12
28 16 56 4 27 10 52 15 55 4 2 6 11 3 19 -4 8 1 18 10 21 11 4 15 13 10 26 -3
11 1 27 10 37 8 9 15 25 15 36 0 11 5 40 11 65 7 25 13 59 14 75 1 17 10 47
19 68 16 37 17 74 2 110 -5 12 -2 22 11 31 16 12 17 20 6 82 -6 38 -14 108
-17 157 -5 68 -13 100 -36 145 -64 127 -263 334 -369 383 -25 11 -68 32 -95
45 -28 13 -55 24 -60 24 -6 1 -28 9 -50 20 -22 11 -48 19 -58 20 -10 0 -66 20
-125 44 -59 24 -123 47 -142 51 -19 4 -69 27 -110 50 -125 70 -331 167 -345
162 -7 -3 -17 -1 -23 5 -5 5 -22 12 -38 15 -47 8 -204 11 -199 4z m-305 -215
c0 -3 -4 -8 -10 -11 -5 -3 -10 -1 -10 4 0 6 5 11 10 11 6 0 10 -2 10 -4z m-10
-33 c0 -5 -4 -14 -9 -21 -7 -11 -9 -11 -14 1 -3 8 -3 18 0 21 9 8 23 7 23 -1z
m-36 -58 c-4 -8 -8 -15 -10 -15 -2 0 -4 7 -4 15 0 8 4 15 10 15 5 0 7 -7 4
-15z m-29 -42 c-6 -27 -15 -26 -19 3 -3 20 17 48 22 33 2 -6 1 -21 -3 -36z
m1209 -562 c19 -11 36 -18 38 -15 3 2 5 -3 5 -11 0 -8 -3 -15 -6 -15 -9 0 -81
50 -81 55 0 8 8 6 44 -14z m317 -492 c-6 -16 -10 -18 -10 -7 -1 22 12 55 16
42 2 -6 -1 -22 -6 -35z m24 -100 c4 -15 2 -30 -4 -33 -15 -9 -33 31 -26 55 8
25 21 15 30 -22z m-2220 -109 c-3 -5 -1 -10 6 -10 7 0 5 -8 -6 -20 -10 -11
-24 -20 -32 -20 -7 0 -13 9 -13 20 0 21 20 28 21 8 0 -7 4 -3 9 10 5 12 12 22
15 22 4 0 3 -4 0 -10z m1563 -68 c2 -7 -6 -12 -17 -12 -21 0 -27 11 -14 24 9
9 26 2 31 -12z m-1498 -93 c0 -5 -5 -9 -11 -9 -8 0 -8 -4 -2 -12 14 -19 14
-58 0 -58 -9 0 -9 -2 -1 -8 13 -8 26 -95 13 -86 -12 7 -11 -9 2 -43 6 -15 12
-39 14 -53 1 -14 6 -33 10 -42 13 -32 -22 -20 -53 18 -39 47 -82 179 -89 271
l-6 72 62 -21 c33 -11 61 -25 61 -29z m1687 -34 l52 -15 -44 -41 c-40 -37 -47
-40 -81 -33 -20 4 -44 14 -54 23 -9 9 -25 21 -35 27 -14 8 -17 17 -11 38 7 28
8 29 64 23 31 -3 80 -13 109 -22z"/>
<path d="M1856 4794 l-19 -26 27 17 c14 10 26 21 26 26 0 16 -15 9 -34 -17z"/>
<path d="M1652 4440 c0 -14 2 -19 5 -12 2 6 2 18 0 25 -3 6 -5 1 -5 -13z"/>
<path d="M1631 4384 c0 -11 3 -14 6 -6 3 7 2 16 -1 19 -3 4 -6 -2 -5 -13z"/>
<path d="M1655 4377 c4 -19 2 -26 -5 -22 -5 3 -10 1 -10 -5 0 -10 28 -26 34
-19 2 2 -3 20 -10 39 -12 29 -13 30 -9 7z"/>
<path d="M1653 4296 c7 -14 13 -23 15 -21 7 6 -9 45 -18 45 -4 0 -3 -11 3 -24z"/>
<path d="M2357 3479 c7 -7 15 -10 18 -7 3 3 -2 9 -12 12 -14 6 -15 5 -6 -5z"/>
<path d="M3625 2547 c-17 -18 -39 -37 -50 -44 -20 -12 -20 -12 0 -6 24 7 63
41 76 66 13 24 9 21 -26 -16z"/>
<path d="M3363 2547 c-11 -6 -27 -28 -34 -49 -7 -22 -16 -41 -20 -44 -22 -13
-78 -188 -65 -201 2 -2 18 5 36 15 19 12 27 23 21 26 -17 11 -13 32 20 109 19
46 43 82 65 100 53 45 38 74 -23 44z"/>
<path d="M2014 2475 c-27 -25 -34 -27 -99 -22 -38 2 -95 10 -126 17 -52 13
-59 12 -103 -10 -63 -30 -141 -33 -178 -6 -36 25 -48 13 -18 -19 15 -16 21
-31 17 -45 -9 -37 48 -89 113 -104 53 -13 57 -12 115 17 54 28 68 31 141 28
44 -1 92 3 107 8 32 12 63 59 72 108 9 50 -6 60 -41 28z"/>
<path d="M1467 2102 c-25 -5 -21 -25 12 -56 20 -19 37 -27 50 -23 12 3 23 2
26 -3 3 -4 31 -11 62 -16 32 -4 63 -8 68 -9 6 -1 41 -3 78 -3 38 -1 66 -6 63
-10 -3 -5 21 -8 52 -8 31 0 99 -6 150 -13 58 -8 97 -10 103 -4 15 15 -41 59
-121 92 -41 18 -87 38 -102 46 -29 17 -62 20 -54 6 8 -13 -19 -21 -70 -21 -30
0 -46 5 -50 15 -8 19 -40 20 -47 1 -6 -15 -60 -13 -97 2 -16 7 -95 9 -123 4z"/>
<path d="M3038 2076 c-10 -7 -18 -20 -18 -29 0 -10 -6 -14 -14 -11 -8 3 -16
-4 -20 -20 -5 -22 -12 -26 -40 -26 -47 0 -66 -9 -66 -31 0 -12 -7 -19 -19 -19
-11 0 -38 -18 -61 -40 -23 -22 -44 -40 -47 -40 -6 0 -61 -44 -112 -89 -13 -11
-30 -21 -38 -21 -7 0 -19 -11 -25 -25 -8 -17 -14 -22 -19 -14 -5 9 -12 8 -24
-4 -9 -10 -21 -17 -26 -17 -5 0 -9 -6 -9 -12 0 -17 -86 -97 -130 -123 -19 -11
-46 -28 -60 -37 -81 -55 -183 -96 -260 -104 -30 -3 -70 -10 -89 -16 -52 -16
-194 -3 -281 26 l-75 25 -92 -40 c-51 -21 -99 -39 -107 -39 -34 0 -221 -77
-376 -155 -93 -47 -186 -92 -207 -99 -21 -7 -97 -38 -169 -69 -72 -30 -175
-67 -227 -81 -108 -29 -170 -57 -272 -126 -38 -26 -89 -59 -113 -74 l-42 -26
0 -370 0 -370 2500 0 2500 0 0 314 0 315 -55 64 c-54 65 -135 127 -164 127
-15 1 -68 27 -341 172 -69 37 -161 80 -205 97 -44 16 -111 44 -150 61 -133 61
-150 68 -250 108 -55 22 -146 63 -201 91 -55 28 -105 51 -110 51 -5 0 -34 19
-64 42 -86 65 -163 118 -172 118 -21 0 -3 -30 53 -86 67 -67 78 -97 79 -199 0
-94 -30 -189 -94 -303 -139 -248 -335 -454 -616 -647 -91 -62 -295 -166 -372
-189 -47 -15 -47 -14 -149 30 -278 123 -666 434 -818 658 -64 94 -80 133 -81
202 -1 111 136 292 273 363 l65 34 24 -23 c33 -31 98 -67 135 -75 23 -5 30
-10 26 -22 -4 -11 -15 -14 -41 -9 -41 6 -62 -7 -62 -38 0 -33 75 -250 115
-331 43 -88 106 -162 160 -186 57 -26 137 -24 225 6 139 47 209 102 323 253
77 104 109 137 212 227 289 252 334 303 429 492 41 82 44 94 46 173 3 127 1
157 -9 142 -6 -10 -10 -8 -15 10 -6 23 -6 23 -21 -6 -9 -16 -25 -36 -37 -44
-11 -9 -28 -23 -37 -34 -8 -10 -23 -18 -33 -18 -10 0 -18 -4 -18 -10 0 -5 -9
-14 -19 -19 -17 -9 -18 -8 -14 12 3 12 10 27 14 33 5 6 6 14 3 17 -4 3 4 22
16 42 16 26 20 42 14 55 -8 16 -12 17 -26 6z"/>
<path d="M1552 1821 c-12 -7 -11 -14 2 -39 9 -17 24 -33 33 -36 38 -11 156
-26 172 -22 9 3 34 10 57 15 28 8 44 19 52 36 7 14 12 27 12 28 0 1 -36 1 -79
0 -74 -3 -168 7 -216 21 -11 4 -26 2 -33 -3z"/>
</g>
</svg>
