<svg xmlns="http://www.w3.org/2000/svg" width="313.962" height="313.963"><radialGradient id="a" cx="148.481" cy="132.982" r="156.981" gradientTransform="matrix(1 0 0 -1 8.5 289.963)" gradientUnits="userSpaceOnUse"><stop offset="0" stop-color="#42BFB8"/><stop offset=".189" stop-color="#3AAEA2"/><stop offset=".73" stop-color="#1A8E79"/><stop offset="1" stop-color="#07826B"/></radialGradient><path fill="url(#a)" d="M44.036 0h225.889c24.322 0 44.037 19.717 44.037 44.036v225.89c0 24.322-19.715 44.037-44.037 44.037h-225.889c-24.32 0-44.036-19.715-44.036-44.037v-225.89c0-24.319 19.716-44.036 44.036-44.036z"/><path fill="#E1BF23" d="M119.766 163.537l104.348-136.562c3.131-4.097 8.986-4.878 13.081-1.749 4.099 3.127 4.883 8.986 1.751 13.08l-104.349 136.565c-3.131 4.094-8.985 4.878-13.083 1.749-4.094-3.13-4.878-8.985-1.748-13.083z"/><path fill="#FDFAD6" d="M102.604 148.033l102.387-134.054c2.404-3.148 6.906-3.753 10.054-1.346l12.302 9.394c3.15 2.405 3.751 6.909 1.347 10.055l-102.384 134.055c-2.406 3.148-6.907 3.752-10.056 1.348l-12.302-9.398c-3.149-2.405-3.752-6.906-1.348-10.054z"/><path fill="#FDFAD6" d="M129.542 168.606l102.386-134.055c2.402-3.148 6.905-3.751 10.055-1.347l12.302 9.396c3.149 2.404 3.752 6.907 1.343 10.054l-102.382 134.056c-2.405 3.148-6.908 3.753-10.053 1.347l-12.303-9.395c-3.15-2.406-3.753-6.907-1.348-10.056z"/><path fill="#FFD48F" d="M165.548 13.957c-5.363-.313-10.781 1.954-14.286 6.544l-82.554 108.08c-44.393 45.234 45.614 153.679 55.892 162.702 7.427 6.518 55.462 2.808 57.999-7.773-.835-6.469-25.205-16.839-16.398-47.569l69.87-91.833c5.608-7.346 4.208-17.852-3.138-23.462l-.343-.256c-7.348-5.611-17.854-4.207-23.464 3.139l-55.026 72.062-.015-.031c-11.503 13.191-70.205-34.704-58.434-46.402l82.539-108.077c5.61-7.347 4.208-17.851-3.137-23.464l-.329-.255c-2.757-2.101-5.957-3.218-9.176-3.405z"/></svg>