<?xml version="1.0" encoding="utf-8"?>
<!-- Generator: Adobe Illustrator 17.0.0, SVG Export Plug-In . SVG Version: 6.00 Build 0)  -->
<!DOCTYPE svg PUBLIC "-//W3C//DTD SVG 1.1//EN" "http://www.w3.org/Graphics/SVG/1.1/DTD/svg11.dtd">
<svg version="1.1" id="Layer_1" xmlns="http://www.w3.org/2000/svg" xmlns:xlink="http://www.w3.org/1999/xlink" x="0px" y="0px"
	 width="1024px" height="1024px" viewBox="0 0 1024 1024" enable-background="new 0 0 1024 1024" xml:space="preserve">
<g>
	<path fill="#E82323" d="M920.855,840.344c0,66.632-54.345,120.977-120.977,120.977H194.997
		c-66.632,0-120.977-54.345-120.977-120.977H920.855z M791.635,658.879h-30.244v15.122c0,58.125-47.729,105.854-105.854,105.854
		H322.851c-58.125,0-105.854-47.729-105.854-105.854V326.193c0-16.54,13.705-30.244,30.244-30.244h544.394
		c100.184,0,181.465,81.281,181.465,181.465S891.818,658.879,791.635,658.879z M791.635,386.682h-30.244v181.465h30.244
		c50.092,0,90.732-40.641,90.732-90.732S841.727,386.682,791.635,386.682z"/>
</g>
<g>
	<path fill="#9C9C9C" d="M481.956,237.558c1.311,10.728,5.404,25.165,10.344,34.583l-0.618-0.154l0.154,0.154
		c-42.611-19.607-50.325-48.29-43.047-98.809c8.26-57.332,33.166-64.38,33.166-103.749c0-10.807-5.404-25.166-10.189-34.583
		l0.463,0.154L472.075,35c42.611,19.607,54.925,42,37.412,94c-11.328,33.635-20.628,51.277-25.304,68.485
		C480.96,209.349,479.934,221.007,481.956,237.558z"/>
	<path fill="#9C9C9C" d="M323.956,238.558c1.311,10.728,5.404,25.165,10.344,34.583l-0.618-0.154l0.154,0.154
		c-42.611-19.607-50.325-48.29-43.047-98.809c8.26-57.332,33.166-64.38,33.166-103.749c0-10.807-5.404-25.166-10.189-34.583
		l0.463,0.154L314.075,36c42.611,19.607,54.925,42,37.412,94c-11.328,33.635-20.628,51.277-25.304,68.485
		C322.96,210.349,321.934,222.007,323.956,238.558z"/>
	<path fill="#9C9C9C" d="M643.956,237.558c1.311,10.728,5.404,25.165,10.344,34.583l-0.618-0.154l0.154,0.154
		c-42.611-19.607-50.325-48.29-43.047-98.809c8.26-57.332,33.166-64.38,33.166-103.749c0-10.807-5.404-25.166-10.189-34.583
		l0.463,0.154L634.075,35c42.611,19.607,54.925,42,37.412,94c-11.328,33.635-20.628,51.277-25.304,68.485
		C642.96,209.349,641.934,221.007,643.956,237.558z"/>
</g>
<text transform="matrix(1 0 0 1 285.1875 630)" fill="#FFFFFF" font-family="'Montserrat-Regular'" font-size="300">RS</text>
</svg>
