<svg xmlns="http://www.w3.org/2000/svg" width="1077.943" height="1077.943"><polygon fill-rule="evenodd" clip-rule="evenodd" fill="#F00404" points="1077.943,540.005 999.415,494.661 1067.594,434.87 981.719,405.692 1036.931,333.752 947.007,321.905 987.128,240.584 896.624,246.494 920.106,158.91 832.482,182.354 838.432,91.876 757.073,131.971 745.25,42.046 673.285,97.258 644.145,11.384 584.33,79.575 538.978,1.021 493.639,79.575 433.824,11.384 404.67,97.258 332.719,42.046 320.883,131.971 239.536,91.85 245.474,182.354 157.863,158.885 181.331,246.494 90.829,240.559 130.949,321.905 41.025,333.728 96.237,405.692 10.349,434.845 78.529,494.661 0,539.979 0,539.995 78.529,585.339 10.338,645.154 96.237,674.308 41.012,746.246 130.936,758.094 90.816,839.442 181.319,833.504 157.851,921.115 245.461,897.647 239.525,988.149 320.872,948.029 332.706,1037.953 404.67,982.741 433.811,1068.616 493.626,1000.449 538.355,1077.943 539.552,1077.943 584.317,1000.449 644.108,1068.64 673.285,982.741 745.226,1037.953 757.073,948.029 838.406,988.149 832.482,897.647 920.08,921.14 896.624,833.504 987.115,839.466 947.007,758.094 1036.919,746.272 981.719,674.308 1067.594,645.154 999.402,585.339 1077.943,540.021" enable-background="new"/><polygon points="999.402,585.339 1077.957,540.013 999.415,494.661 1067.594,434.87 981.719,405.692 1036.931,333.752 947.007,321.905 987.128,240.584 896.624,246.494 920.106,158.91 832.482,182.353 838.432,91.876 757.073,131.971 745.25,42.046 673.285,97.258 644.145,11.384 584.33,79.575 538.978,1.021 493.639,79.575 433.824,11.384 404.67,97.258 332.719,42.046 320.883,131.971 239.536,91.85 245.473,182.353 157.863,158.885 181.331,246.494 90.829,240.559 130.949,321.905 41.025,333.728 96.237,405.692 10.349,434.845 78.529,494.661 -0.014,539.987 78.529,585.339 10.338,645.154 96.237,674.308 41.012,746.246 130.936,758.094 90.816,839.442 181.318,833.504 157.851,921.115 245.461,897.646 239.525,988.149 320.872,948.029 332.706,1037.953 404.67,982.741 433.811,1068.616 493.626,1000.449 538.953,1078.979 584.317,1000.449 644.108,1068.64 673.285,982.741 745.226,1037.953 757.073,948.029 838.406,988.149 832.482,897.646 920.08,921.14 896.624,833.504 987.115,839.466 947.007,758.094 1036.919,746.272 981.719,674.308 1067.594,645.154" fill="none"/><rect x="-81.257" y="73.029" width="981.257" height="943.864" fill="none"/><text transform="translate(212.692 861.516)" fill="#FDFCFC" font-family="'Futura-CondensedMedium'" font-size="950">#</text><rect x="455.657" y="206.743" transform="matrix(-.989 .148 -.148 -.989 1592.634 970.437)" width="608.914" height="675.779" fill="none"/><text transform="matrix(.989 -.148 .148 .989 607.973 522.674)" fill="#FFF004" font-family="'Arial'" font-size="400">H</text><rect x="504" y="524.571" transform="matrix(-.989 .149 -.149 -.989 1736.747 1594.39)" width="608.914" height="675.779" fill="none"/><text transform="matrix(.989 -.149 .149 .989 682.395 836.723)" fill="#FFF004" font-family="'Arial'" font-size="400">T</text></svg>
