<svg xmlns:dc="http://purl.org/dc/elements/1.1/" xmlns:cc="http://creativecommons.org/ns#" xmlns:rdf="http://www.w3.org/1999/02/22-rdf-syntax-ns#" xmlns:svg="http://www.w3.org/2000/svg" xmlns="http://www.w3.org/2000/svg" xmlns:sodipodi="http://sodipodi.sourceforge.net/DTD/sodipodi-0.dtd" xmlns:inkscape="http://www.inkscape.org/namespaces/inkscape" version="1.1" id="svg2" xml:space="preserve" width="1333.3333" height="356.70667" viewBox="0 0 1333.3333 356.70667" xmlns:xlink="http://www.w3.org/1999/xlink">
 <metadata id="metadata8">
 </metadata>
 <defs id="defs6">
 </defs>
 <g id="g10" inkscape:groupmode="layer" inkscape:label="ink_ext_XXXXXX" transform="matrix(1.3333333,0,0,-1.3333333,0,356.70667)">
  <g id="g12" transform="scale(0.1)">
   <path d="m 9948.38,2212.77 c -35.45,39.89 -82.71,59.86 -146.68,59.86 -63.96,0 -112.69,-21.29 -146.87,-65.13 -33.89,-42.39 -51.57,-106.01 -51.57,-189.65 v -605.03 c -78.71,84.96 -160.35,145.99 -243.06,187.16 -51.86,25.09 -112.8,43.6 -180.76,53.02 -39.56,5.28 -80.18,8.01 -124.91,8.01 -208,0 -376.27,-71.68 -505.47,-214.94 -127.73,-143.36 -191.5,-342.38 -191.5,-598.289 0,-120.902 16.31,-233.59 48.73,-337.16 32.72,-103.473 78.61,-193.601 141.41,-270.652 62.5,-76.957 137.11,-135.16 222.75,-177.8401 85.55,-41.0078 177.93,-62.09765 278.52,-62.09765 46.29,0 89.55,3.80078 130.47,11.70705 27.14,4.2031 52.93,10.75 78.8,18.75 63.77,21.1015 123.54,51.5703 177.93,90.0427 55.67,39.938 111.53,91.598 167.09,154.008 v -39.848 c 0,-75.679 19.05,-132.609 55.67,-173.7301 38.08,-39.8398 85.64,-60.92965 142.77,-60.92965 58.4,0 105.96,19.71875 142.58,58.19925 36.62,39.8398 55.72,98.1405 55.72,176.4605 V 2039.04 c 0,75.68 -17.73,134.08 -51.62,173.73 M 9525.82,543.781 C 9489.01,466.82 9440.28,409.789 9380.61,372.68 9319.38,335.469 9252.68,317.02 9179.44,317.02 h -1.27 c -73.44,0 -140.04,19.82 -201.27,58.3 -61.04,39.739 -110.06,98.239 -145.32,175.141 -35.25,78.328 -52.93,172.469 -52.93,283.937 0,104.793 16.22,197.662 50.2,275.932 32.71,79.59 80.18,140.72 140.04,183.15 61.13,43.85 129.1,63.67 206.54,63.67 h 4.01 c 71.97,0 138.47,-21.24 199.7,-62.3 61.14,-41.11 109.87,-100.98 146.68,-179.2 36.72,-78.27 54.3,-172.459 54.3,-281.252 0,-116.699 -17.58,-213.668 -54.3,-290.617" style="fill:#003a9b;fill-opacity:1;fill-rule:nonzero;stroke:none" id="path14">
   </path>
   <path d="m 8228.26,526.539 c -25.58,22.563 -61.03,34.52 -104.59,34.52 -39.35,0 -69.23,-9.278 -91.01,-26.508 -52.93,-47.813 -95.02,-86.09 -127.74,-114.11 -32.52,-26.57 -69.23,-53.132 -108.69,-78.23 -37.89,-23.832 -78.71,-42.582 -119.24,-53.223 -42.28,-11.816 -87.2,-17.09 -137.4,-17.09 -10.94,0 -21.87,0 -31.25,1.372 -62.5,3.902 -120.9,21.289 -173.83,53.121 -62.69,35.839 -111.52,88.668 -149.61,157.718 -36.71,71.68 -55.56,153.852 -56.93,246.68 h 819.14 c 109.96,0 195.51,16.063 255.57,45.313 61.03,31.789 90.92,98.097 90.92,200.238 0,111.48 -29.89,220.32 -88.29,327.64 -58.49,106.25 -145.41,193.8 -263.57,261.43 -117.09,67.57 -256.93,100.83 -421.19,100.83 h -12.21 c -120.9,-1.27 -232.42,-21.29 -331.54,-58.4 -103.22,-39.8 -190.24,-96.83 -262.31,-169.78 -69.14,-74.27 -123.53,-163.18 -160.15,-266.65 -36.62,-103.61 -55.76,-216.308 -55.76,-336.961 0,-257.519 74.8,-459.129 224.22,-609.027 C 7063.91,83.4219 7259.71,9.10938 7508.34,1.28906 c 13.58,-1.25781 28.42,-1.25781 43.46,-1.25781 116.8,0 221.48,14.44925 312.4,44.91795 91.11,30.5625 165.72,67.8708 225.78,112.7888 59.48,46.481 104.4,94.141 134.08,143.364 30.08,49.019 45.02,92.769 45.02,128.707 0,41.023 -13.47,74.222 -40.82,96.73 M 7250.24,1276.2 c 66.4,70.31 152.14,104.78 256.64,104.78 h 1.46 c 108.6,0 196.97,-34.47 263.48,-103.42 66.8,-69.04 105.96,-173.87 115.62,-314.451 h -759.47 c 13.48,137.941 54.3,242.871 122.27,313.091" style="fill:#003a9b;fill-opacity:1;fill-rule:nonzero;stroke:none" id="path16">
   </path>
   <path d="m 6447.21,561.059 c -40.72,0 -70.7,-9.278 -92.29,-26.508 -51.75,-47.813 -95.11,-86.18 -127.83,-114.11 -32.52,-26.57 -67.87,-53.132 -107.32,-78.23 -39.26,-23.832 -78.81,-42.582 -120.9,-53.223 -40.82,-11.816 -87.01,-17.09 -137.21,-17.09 -10.84,0 -21.68,0 -31.15,1.372 -62.6,3.902 -121.09,21.289 -174.02,53.121 -61.04,35.839 -111.43,88.668 -147.95,157.718 -38.19,71.68 -57.23,153.852 -58.55,246.68 h 820.56 c 108.79,0 194.33,16.063 255.47,45.313 59.86,31.789 89.65,98.097 89.65,200.238 0,111.48 -28.52,220.32 -86.92,327.64 -58.49,106.25 -146.77,193.8 -263.38,261.43 -117.28,67.57 -258.3,100.83 -421.19,100.83 h -13.67 c -121.09,-1.27 -231.15,-21.29 -331.54,-58.4 -103.37,-39.8 -190.29,-96.83 -260.94,-169.78 -70.65,-74.27 -125.05,-163.18 -161.57,-266.65 -36.82,-103.61 -55.76,-216.308 -55.76,-337.012 0,-257.468 76.07,-459.078 225.68,-608.976 141.06,-142.0001 335.5,-216.31262 584.13,-224.13294 14.84,-1.25781 28.42,-1.25781 43.46,-1.25781 118.06,0 221.48,14.44925 312.2,44.91795 91.12,30.5625 165.92,67.8708 225.59,112.7888 61.13,46.481 104.59,94.141 134.57,143.364 29.98,49.019 44.82,92.769 44.82,128.707 0,41.023 -13.47,74.222 -39.25,96.73 -27.15,22.563 -62.6,34.52 -104.69,34.52 M 5572.36,1276.2 c 66.4,70.31 151.9,104.78 256.69,104.78 h 1.46 c 108.59,0 196.88,-34.47 263.57,-103.42 67.78,-69.04 105.86,-173.87 116.8,-314.451 h -760.89 c 15.04,137.941 55.81,242.871 122.37,313.091" style="fill:#003a9b;fill-opacity:1;fill-rule:nonzero;stroke:none" id="path18">
   </path>
   <path d="m 872.797,271.898 v 976.372 c 28.516,-2.49 55.711,-3.81 84.226,-3.81 135.837,0 263.717,35.79 372.267,99.46 V 271.898 c 0,-91.5 -21.78,-159.179 -63.82,-204.3863 C 1223.48,22.4883 1167.62,0.03125 1099.7,0.03125 1033.1,0.03125 980.121,22.4883 936.566,68.8711 894.574,113.988 872.797,181.762 872.797,271.898" style="fill:#003a9b;fill-opacity:1;fill-rule:nonzero;stroke:none" id="path20">
   </path>
   <path d="m 4819.57,2212.77 c -35.45,39.89 -84.18,59.86 -145.41,59.86 -63.82,0 -112.84,-21.29 -146.77,-65.13 -35.11,-42.39 -51.62,-106.01 -51.62,-189.65 v -605.03 c -78.8,84.96 -160.3,145.99 -243.21,187.16 -52.83,25.09 -112.74,43.6 -180.57,53.02 -39.35,5.28 -80.17,8.01 -124.95,8.01 -208,0 -377.78,-71.68 -505.42,-214.94 -127.73,-143.36 -191.7,-342.38 -191.7,-598.289 0,-120.902 16.46,-233.59 47.51,-337.16 32.72,-103.473 80.23,-193.601 142.88,-270.652 62.35,-76.957 137.1,-135.16 222.85,-177.8401 85.54,-41.0078 177.78,-62.09765 278.32,-62.09765 44.82,0 88.38,3.80078 130.51,11.70705 27.1,4.2031 52.98,10.75 78.81,18.75 63.82,21.1015 123.59,51.5703 177.93,90.0427 55.67,39.938 110.11,91.598 167.04,154.008 v -39.848 c 0,-75.679 19.14,-132.609 55.77,-173.7301 36.71,-39.8398 85.59,-60.92965 142.62,-60.92965 55.57,0 104.64,19.71875 141.46,58.19925 36.62,39.8398 54.2,98.1405 54.2,176.4605 V 2039.04 c 0,75.68 -16.17,134.08 -50.25,173.73 M 4398.28,543.781 C 4361.71,466.82 4312.74,409.789 4251.75,372.68 4191.89,335.469 4123.97,317.02 4051.99,317.02 h -1.46 c -73.14,0 -139.89,19.82 -200.98,58.3 -62.5,39.739 -110.06,98.239 -145.46,175.141 -35.25,78.328 -52.93,172.469 -52.93,283.937 0,104.793 16.46,197.662 48.93,275.932 33.98,79.59 80.13,140.72 141.26,183.15 59.86,43.85 129,63.67 205.22,63.67 h 5.42 c 71.98,0 138.53,-21.24 198.25,-62.3 62.5,-41.11 111.47,-100.98 148.04,-179.2 35.26,-78.27 54.5,-172.459 54.5,-281.252 0,-116.699 -19.24,-213.668 -54.5,-290.617" style="fill:#003a9b;fill-opacity:1;fill-rule:nonzero;stroke:none" id="path22">
   </path>
   <path d="m 1999.07,1438.06 v -50.49 c 74.7,95.56 154.93,164.55 241.89,209.72 88.33,43.7 188.82,66.41 302.93,66.41 110.06,0 209.23,-23.93 296.24,-70.41 86.96,-46.39 150.78,-112.8 194.29,-199.08 28.56,-50.29 46.24,-104.83 54.29,-163.13 8.21,-56.98 12.21,-131.2 12.21,-221.53 V 249.238 c 0,-82.218 -20.26,-144.429 -58.45,-185.6364 -37.94,-42.4805 -88.38,-63.57035 -149.51,-63.57035 -62.35,0 -112.6,21.08985 -152.1,64.93755 -39.45,42.4802 -58.3,104.6792 -58.3,184.2692 v 680.813 c 0,135.209 -19.09,238.729 -57.18,310.359 -38.03,71.58 -115.52,107.47 -229.49,107.47 -74.75,0 -142.77,-22.66 -203.95,-64.99 -60.99,-43.85 -107.28,-103.42 -135.89,-180.42 -20.32,-61.09 -29.93,-173.779 -29.93,-342.431 V 249.238 C 2026.12,165.75 2006,104.809 1966.55,62.1289 1927.09,21.1211 1876.9,0.03125 1814.3,0.03125 c -60.99,0 -110.11,21.08985 -149.46,64.93755 -39.36,42.4802 -58.5,104.6792 -58.5,184.2692 V 1431.47 c 0,78.17 17.68,136.57 53.08,173.73 33.98,38.38 81.44,58.5 142.72,58.5 36.67,0 69.19,-7.91 99.02,-25.39 30.08,-17.09 54.4,-42.39 72.07,-76.86 17.63,-34.37 25.84,-75.63 25.84,-123.39" style="fill:#003a9b;fill-opacity:1;fill-rule:nonzero;stroke:none" id="path24">
   </path>
   <path d="m 875.434,2612.14 c 282.616,99.61 604.636,94.28 846.436,-110.01 44.97,-41.12 96.48,-92.88 116.89,-153.91 24.51,-76.95 -85.5,8.05 -100.58,18.51 -78.76,50.48 -157.62,92.91 -245.8,122.16 C 1016.89,2632.11 566.984,2373.36 287.297,1971.36 170.5,1793.58 94.2813,1606.62 31.8281,1401 c -6.7383,-22.65 -12.207,-51.9 -24.55857,-71.58 -12.20703,-22.75 -5.37109,60.79 -5.37109,63.57 9.42186,84.82 27.19536,167.09 48.97266,249.37 129.0039,437.89 414.2579,802.69 824.5629,969.78" style="fill:#003a9b;fill-opacity:1;fill-rule:nonzero;stroke:none" id="path26">
   </path>
   <path d="m 1243.69,1525.66 c -169.77,-84.91 -377.78,-18.7 -463.374,147.17 -86.964,165.92 -18.945,368.85 150.829,452.44 169.875,84.91 377.885,18.65 463.375,-147.27 86.97,-165.86 19.05,-368.79 -150.83,-452.34" style="fill:#003a9b;fill-opacity:1;fill-rule:nonzero;stroke:none" id="path28">
   </path>
  </g>
 </g>
</svg>