<svg xmlns="http://www.w3.org/2000/svg" xmlns:xlink="http://www.w3.org/1999/xlink" version="1.1" id="Layer_1" x="0px" y="0px" viewBox="0 0 403.6 61.1" enable-background="new 0 0 403.6 61.1" xml:space="preserve"><style>.style0{fill:	#4C4D4D;}.style1{fill:	#94CEE6;}.style2{fill:	#4AA5C1;}.style3{fill:	#E64855;}.style4{fill:	#A6384C;}.style5{fill:	#23AB6E;}.style6{fill:	#1B8452;}</style><g><path d="M4 22v17.3h10.8V43H0V22H4z" class="style0"/><path d="M44.8 32.6c-0.1 5.4-3.4 10.9-10.8 10.9c-7.4 0-10.8-5.3-10.8-10.8S26.7 21.6 34 21.6 C41.2 21.6 44.8 27.1 44.8 32.6z M27.1 32.7c0.1 3.4 1.9 7.1 6.9 7.1c5 0 6.8-3.7 6.9-7.2c0.1-3.5-1.9-7.5-6.9-7.5 C29 25.2 27 29.2 27.1 32.7z" class="style0"/><path d="M73.4 40.4c-2.2 2.1-4.9 3.1-8 3.1c-7.8 0-11.1-5.4-11.1-10.8c0-5.5 3.5-11.1 11.1-11.1 c2.9 0 5.5 1.1 7.7 3.2l-2.6 2.6c-1.4-1.4-3.2-2-5.1-2c-5.1 0-7.3 3.8-7.2 7.3c0 3.5 2 7.1 7.2 7.1c1.8 0 3.9-0.8 5.3-2.1 L73.4 40.4z" class="style0"/><path d="M96.8 39h-11L84 43h-4.3l9.4-21h4.3l9.4 21h-4.3L96.8 39z M91.3 26.4l-3.9 8.9h7.8L91.3 26.4z" class="style0"/><path d="M116.1 22v17.3h10.8V43h-14.8V22H116.1z" class="style0"/></g><g><path d="M233.5 27.8l-6.8 9.1h-0.8l-6.7-9.1V43h-4V22h4.6l6.6 9l6.6-9h4.5v21h-4V27.8z" class="style0"/><path d="M264 43h-15.7c0-7 0-14 0-21H264v3.8h-11.8v4.8h11.4v3.7h-11.4v4.7H264V43z" class="style0"/><path d="M289.2 39h-11l-1.8 4h-4.3l9.4-21h4.3l9.4 21H291L289.2 39z M283.7 26.4l-3.9 8.9h7.8L283.7 26.4z" class="style0"/><path d="M316.9 27.1c-0.7-1.2-2.7-2.3-5-2.3c-2.9 0-4.4 1.2-4.4 2.8c0 1.8 2.2 2.3 4.7 2.6c4.4 0.5 8.5 1.7 8.5 6.7 c0 4.7-4.1 6.7-8.8 6.7c-4.3 0-7.6-1.3-9.1-5.2l3.3-1.7C307 39 309.4 40 312 40c2.5 0 4.8-0.9 4.8-3.2c0-2-2.1-2.8-4.9-3.1 c-4.3-0.5-8.2-1.6-8.2-6.4c0-4.3 4.3-6.1 8.1-6.1c3.3 0 6.7 0.9 8.2 4.2L316.9 27.1z" class="style0"/><path d="M349.4 22v12c0 6.2-3.8 9.4-9.1 9.4c-5 0-9.3-3.1-9.3-9.4V22h3.9v12c0 3.8 2.2 5.8 5.4 5.8s5.1-2.2 5.1-5.8 V22H349.4z" class="style0"/><path d="M379.1 43h-4.7l-6.1-7h-3.8v7h-4V22c3.3 0 6.7 0 10 0c5 0 7.6 3.3 7.6 7c0 2.9-1.3 5.8-5.3 6.6l6.4 7.2V43z M364.5 25.7v6.7h6c2.5 0 3.6-1.7 3.6-3.4c0-1.7-1.1-3.4-3.6-3.4H364.5z" class="style0"/><path d="M403.6 43h-15.7c0-7 0-14 0-21h15.7v3.8h-11.8v4.8h11.4v3.7h-11.4v4.7h11.8V43z" class="style0"/></g><polygon points="153.8,25.3 153.8,53.4 164.8,53.4 164.8,17.6 154,25.3" class="style1"/><polygon points="153.8,45.5 153.8,53.4 153.8,61.1 154,61.1 164.8,53.4 164.8,53.2" class="style2"/><polygon points="166.9,16.9 166.9,44.9 177.9,44.9 177.9,9.2 167.2,16.9" class="style3"/><polygon points="166.9,37 166.9,44.9 166.9,52.6 167.2,52.6 177.9,44.9 177.9,44.7" class="style4"/><polygon points="180.4,7.7 180.4,35.8 191.5,35.8 191.5,0 180.7,7.7" class="style5"/><polygon points="180.4,27.9 180.4,35.8 180.4,43.5 180.7,43.5 191.5,35.8 191.5,35.6" class="style6"/></svg>