<svg x="0" y="0" version="1.1" xmlns="http://www.w3.org/2000/svg" xmlns:xlink="http://www.w3.org/1999/xlink" viewBox="0 0 24 24" width="512" height="512" style="fill: rgb(26, 188, 156);"><g fill="none" stroke="none" stroke-width="1" stroke-linecap="butt" stroke-linejoin="miter" stroke-miterlimit="10" stroke-dasharray="" stroke-dashoffset="0" font-family="sans-serif" font-weight="normal" font-size="12" text-anchor="start" mix-blend-mode="normal"><g><g><path d="M0,24l0,-24l24,0l0,24z" fill="none"/><path d="M3.6408,22.32c-1.08292,0 -1.9608,-0.87788 -1.9608,-1.9608l0,-16.7184c0,-1.08292 0.87788,-1.9608 1.9608,-1.9608l16.7184,0c1.08292,0 1.9608,0.87788 1.9608,1.9608l0,16.7184c0,1.08292 -0.87788,1.9608 -1.9608,1.9608z" fill="#ffffff"/><g fill="#1abc9c"><path d="M2.1875,0c-1.2,0 -2.1875,0.9875 -2.1875,2.1875l0,19.625c0,1.2 0.9875,2.1875 2.1875,2.1875l19.625,0c1.2,0 2.1875,-0.9875 2.1875,-2.1875l0,-19.625c0,-1.2 -0.9875,-2.1875 -2.1875,-2.1875z M12,3c3.8,0 7.2875,1.7125 9.6875,4.3125l-3.6875,3.6875l-12,0l-3.6875,-3.6875c2.4,-2.6 5.8875,-4.3125 9.6875,-4.3125z M16,5l-4,5l2.5,0z"/></g></g></g></g></svg>