<?xml version="1.0" encoding="UTF-8" standalone="no"?>
<!DOCTYPE svg PUBLIC "-//W3C//DTD SVG 1.1//EN" "http://www.w3.org/Graphics/SVG/1.1/DTD/svg11.dtd">
<svg width="100%" height="100%" viewBox="0 0 4700 4700" version="1.1" xmlns="http://www.w3.org/2000/svg" xmlns:xlink="http://www.w3.org/1999/xlink" xml:space="preserve" xmlns:serif="http://www.serif.com/" style="fill-rule:evenodd;clip-rule:evenodd;stroke-linejoin:round;stroke-miterlimit:2;">
    <g transform="matrix(0.906237,0,0,0.810866,192.553,67.6075)">
        <g id="Background">
            <g id="Primary-bg-darker" serif:id="Primary bg darker">
                <rect x="-212.475" y="-83.377" width="5186.28" height="5796.27" style="fill:rgb(0,138,149);"/>
            </g>
        </g>
    </g>
    <g id="Logo" transform="matrix(1.26769,0,0,1.26769,166.153,639.588)">
        <g id="H" transform="matrix(1.13756,0.251711,-0.251711,1.13756,70.9282,-583.23)">
            <g transform="matrix(1.08238,-0.156371,0.150813,1.04391,-636.039,198.927)">
                <path d="M2159.76,520.969L2159.76,1476.89C2159.76,1571.17 2085.93,1647.71 1995,1647.71C1904.07,1647.71 1830.24,1571.17 1830.24,1476.89L1830.24,520.969C1830.24,426.687 1904.07,350.141 1995,350.141C2085.93,350.141 2159.76,426.687 2159.76,520.969Z" style="fill:rgb(253,176,0);"/>
            </g>
            <g transform="matrix(1.08238,-0.156371,0.150813,1.04391,-83.3987,198.927)">
                <path d="M2159.76,520.969L2159.76,1476.89C2159.76,1571.17 2085.93,1647.71 1995,1647.71C1904.07,1647.71 1830.24,1571.17 1830.24,1476.89L1830.24,520.969C1830.24,426.687 1904.07,350.141 1995,350.141C2085.93,350.141 2159.76,426.687 2159.76,520.969Z" style="fill:rgb(253,176,0);"/>
            </g>
            <g transform="matrix(-0.0788108,-1.09077,0.662643,-0.0478776,1445.57,3153.67)">
                <path d="M2159.76,619.666L2159.76,1378.19C2159.76,1527.87 2085.93,1649.39 1995,1649.39C1904.07,1649.39 1830.24,1527.87 1830.24,1378.19L1830.24,619.666C1830.24,469.984 1904.07,348.461 1995,348.461C2085.93,348.461 2159.76,469.984 2159.76,619.666Z" style="fill:rgb(253,176,0);"/>
            </g>
        </g>
        <g transform="matrix(1.04032,-0.200525,0.199731,1.0362,-491.962,-777.644)">
            <g id="O">
                <path d="M1100,1193C1420.11,1193 1680,1494.56 1680,1866C1680,2237.44 1420.11,2539 1100,2539C779.889,2539 520,2237.44 520,1866C520,1494.56 779.889,1193 1100,1193ZM1100,1730.72C1035.65,1730.72 983.409,1791.33 983.409,1866C983.409,1940.67 1035.65,2001.29 1100,2001.29C1164.35,2001.29 1216.59,1940.67 1216.59,1866C1216.59,1791.33 1164.35,1730.72 1100,1730.72Z" style="fill:rgb(245,102,0);"/>
            </g>
        </g>
        <g transform="matrix(0.895071,-0.138591,0.225104,1.4538,918.174,-584.682)">
            <g id="h">
                <path d="M940,1918.04L940,2089.03C940,2146.96 863.602,2194 769.5,2194C675.398,2194 599,2146.96 599,2089.03L599,1561.97C599,1504.04 675.398,1457 769.5,1457C863.602,1457 940,1504.04 940,1561.97L940,1727.76C968.119,1722.78 998.178,1720.08 1029.4,1720.09C1183.35,1720.09 1308.88,1785.59 1313.69,1867.24C1313.78,1868.55 1313.83,1869.87 1313.83,1871.2L1313.83,2107.98C1313.83,2156.42 1249.95,2195.76 1171.26,2195.76C1092.58,2195.76 1028.69,2156.42 1028.69,2107.98L1028.69,1915.91L1028.61,1915.91C1027.21,1897.7 1007.93,1883.27 984.346,1883.27C960.765,1883.27 941.482,1897.7 940.08,1915.91L940,1915.91L940,1917.73C939.999,1917.84 939.998,1917.94 939.998,1918.04L940,1918.04Z" style="fill:rgb(245,114,44);"/>
            </g>
        </g>
        <g transform="matrix(1.15433,0.20803,-0.167081,0.927109,-289.046,12.4672)">
            <g id="A">
                <path d="M1931.36,2148.61C1888.1,2196.06 1835.6,2223.85 1779.04,2223.81C1631.33,2223.7 1511.51,2033.81 1511.61,1800.02C1511.72,1566.23 1631.73,1376.51 1779.43,1376.61C1836.93,1376.65 1890.21,1405.46 1933.83,1454.43C1952.88,1418.06 1985.85,1394 2023.29,1394C2082.18,1394 2130,1453.54 2130,1526.87L2130,2081.13C2130,2154.46 2082.18,2214 2023.29,2214C1984.17,2214 1949.93,2187.74 1931.36,2148.61ZM1806.05,1660.48C1754.98,1660.5 1713.52,1720.42 1713.54,1794.22C1713.55,1868.01 1755.04,1927.91 1806.11,1927.89C1857.19,1927.87 1898.65,1867.95 1898.63,1794.15C1898.61,1720.36 1857.13,1660.46 1806.05,1660.48Z" style="fill:rgb(255,191,88);"/>
            </g>
        </g>
        <g transform="matrix(0.745636,-0.514186,0.567699,0.823236,-825.658,842.89)">
            <g id="Y">
                <path d="M599.111,2045.18C599.037,2043.32 599,2041.45 599,2039.57L599,1611.43C599,1526.2 675.398,1457 769.5,1457C863.602,1457 940,1526.2 940,1611.43L940,1808.13L1117.6,1684.62C1192.24,1632.72 1299.37,1645.47 1356.67,1713.07C1413.98,1780.67 1399.9,1877.7 1325.27,1929.6L646.256,2401.78C571.616,2453.69 464.493,2440.94 407.186,2373.34C349.88,2305.74 363.953,2208.71 438.593,2156.8L599.111,2045.18Z" style="fill:rgb(245,114,44);"/>
            </g>
        </g>
        <g transform="matrix(-0.838963,-0.0721621,0.0638259,-0.742045,5833.01,2595.61)">
            <g id="_-" serif:id="!">
                <path d="M3719,394C3719,394 3947,394 3947,2077.56C3947,2304.09 3844.84,2488 3719,2488C3593.16,2488 3491,2304.09 3491,2077.56C3491,394 3719,394 3719,394ZM3727.02,328.428C3659.83,334.962 3599.53,264.607 3592.43,171.415C3585.35,78.223 3634.14,-2.742 3701.33,-9.276C3768.52,-15.81 3828.82,54.545 3835.91,147.737C3843,240.929 3794.21,321.894 3727.02,328.428Z" style="fill:rgb(245,102,0);"/>
            </g>
        </g>
    </g>
</svg>
