<?xml version="1.0" encoding="utf-8"?>
<!-- Generator: Adobe Illustrator 25.0.1, SVG Export Plug-In . SVG Version: 6.00 Build 0)  -->
<svg version="1.0" id="Layer_1" xmlns="http://www.w3.org/2000/svg" xmlns:xlink="http://www.w3.org/1999/xlink" x="0px" y="0px"
	 viewBox="0 0 809.8 493.8" style="enable-background:new 0 0 809.8 493.8;" xml:space="preserve">
<style type="text/css">
	.st0{fill:#23366A;}
	.st1{fill:none;}
</style>
<path class="st0" d="M83.5,207.1c2.2-1.2,4.9-1.2,7,0.1c5.7,3.3,11.4,6.6,17.1,9.9c-10.4,8-20.8,16-31.3,24
	c-1.2,0.8-2.4,1.8-3.6,2.8c21.4-12.2,42.7-24.5,64.1-36.9c2.1-1.1,4.6-1.1,6.7,0.1c7.8,4.5,15.6,9,23.4,13.6c2,1.1,3.3,3.2,3.3,5.5
	c0,9.1,0,18.3,0,27.4c0,2.4-1.3,4.7-3.4,5.8c-7.7,4.5-15.5,8.9-23.2,13.4c-2.1,1.3-4.8,1.3-7,0.1c-5.7-3.3-11.5-6.6-17.2-9.9
	c11.7-9.1,23.6-18,35.3-27.1c-21.6,12.4-43.1,24.9-64.7,37.2c-2.1,1.1-4.6,1-6.6-0.2c-7.7-4.5-15.5-9-23.3-13.4
	c-2.1-1.2-3.5-3.4-3.5-5.9c0-9,0-18,0-27c-0.1-2.5,1.2-4.8,3.4-6C67.8,216.1,75.6,211.6,83.5,207.1z"/>
<path class="st0" d="M291.9,207.2c2.4-0.8,5-0.4,7,1.3c2.8,2.7,2.8,7.1,0.1,9.9c-0.1,0.1-0.3,0.3-0.5,0.4c-2.8,2-7.2,1.8-9.4-1
	C286.4,214.5,287.7,208.6,291.9,207.2z"/>
<path class="st0" d="M221.6,209.1c7.5-1.4,15.3-0.1,22,3.6c7.1,4.1,12.3,11,14.3,19c1.2,4.8,1.3,9.8,0.5,14.6
	c-1.5,8.5-6.5,16-13.8,20.6c-12,7.6-29.2,6.1-39.2-4.1c-10.8-10.6-12.1-29-3.4-41.2C206.6,215,213.7,210.5,221.6,209.1z
	 M223.8,219.2c-3.8,0.7-7.4,2.6-10.1,5.4c-8.1,8.5-7.9,23.4,0.5,31.6c7.9,7.3,20.2,6.9,27.5-0.9c0.5-0.5,1-1.1,1.4-1.7
	c3.9-5.3,4.9-12.2,3.6-18.6c-1.1-5.5-4.3-10.3-9-13.3C233.6,219.1,228.6,218.3,223.8,219.2z"/>
<path class="st0" d="M267.1,210.1h10.7c0,20,0,40,0,60.1h-10.7V210.1z"/>
<path class="st0" d="M441.6,210.1h10.9c4.4,14.8,9,29.5,13.4,44.3c4.2-14,8.5-28,12.7-42c0.2-0.5,0.2-1.2,0.6-1.6
	c3.4-0.1,6.7,0,10.1,0c4.5,14.4,8.8,28.9,13.4,43.3c4.5-14.7,9-29.3,13.5-44h10.4c-6,20-12,40.1-18.1,60.1c-3.6,0-7.3,0-11,0
	c-2.7-8.9-5.5-17.7-8.3-26.6c-1.8-5.6-3.4-11.3-5.4-16.9c-4.4,14.5-8.8,29-13.2,43.5c-3.7,0-7.3,0-11,0
	C453.7,250.1,447.6,230.1,441.6,210.1z"/>
<path class="st0" d="M365.6,226.5c5-3.2,11.2-4,17-3.1c5.4,0.9,10.2,4,13.2,8.7c3.5,5.4,4,12,3.2,18.2c-11.2,0-22.3,0-33.5,0
	c0.5,3.2,2,6.1,4.4,8.2c3.8,3.4,9.2,4.1,14.1,3.6c5-0.5,9.9-2.4,13.9-5.4c0,3.2,0,6.4,0,9.6c-6,4-13.1,5.8-20.3,5.2
	c-7-0.5-14.1-3.5-18.3-9.3c-4.1-5.4-4.9-12.6-4.1-19.2C356.1,236.3,359.9,230.3,365.6,226.5z M370.5,233.7c-3,2.2-4.5,6-5,9.6h23.7
	c-0.1-1.9-0.6-3.7-1.3-5.5c-1.2-2.9-3.7-5.1-6.7-5.9C377.7,231,373.6,231.3,370.5,233.7z"/>
<path class="st0" d="M602.3,223.4c3.7-0.7,7.5-0.2,10.9,1.3c3,1.6,5.4,4.2,6.6,7.5c1.3-2.7,3.3-4.9,5.8-6.5
	c4.6-2.7,10.2-3.3,15.3-1.7c4.1,1.3,7.4,4.3,8.9,8.3c1.4,3.8,2.1,7.8,1.8,11.9c0,8.7,0,17.4,0,26.2h-10.8c0-8,0-15.9,0-23.9
	c0-3.3-0.1-6.8-1.7-9.7c-2.7-4.9-10.2-5.1-14-1.4c-2.8,2.6-3.5,6.6-3.5,10.2c0,8.3,0,16.5,0,24.8c-3.5,0-7.1,0-10.6,0
	c-0.1-8.3,0-16.6,0-24.9c-0.1-3.1-0.2-6.5-1.9-9.2c-2.9-4.5-9.9-4.5-13.7-1.1c-2.8,2.5-3.6,6.3-3.7,9.9c0,8.4,0,16.8,0,25.3h-10.8
	c0-15.2,0-30.5,0-45.7c3.4,0,6.9,0,10.3,0c0.1,2.3,0,4.7,0,7C593.5,227.2,597.6,224.2,602.3,223.4z"/>
<path class="st0" d="M663.3,227.5c7.5-4.4,16.4-5.5,24.8-3.2c4.6,1.3,8.4,4.5,10.4,8.8c1.5,3.6,2.2,7.5,2,11.4c0,8.6,0,17.1,0,25.7
	h-9.3c-0.1-2.1-0.2-4.3-0.1-6.4c-3.9,6.9-12.8,9.1-20.1,7.4c-4.6-1-8.5-4.3-10.1-8.7c-1.3-4-1-8.4,0.8-12.2
	c2.2-4.2,6.6-6.9,11.2-7.8c6-1.2,12.2-0.6,17.8,1.6c-0.1-3.3-0.8-6.8-3.4-9.1c-3-2.5-7.1-2.9-10.8-2.6c-4.7,0.4-9.3,2-13.2,4.7
	V227.5z M672.1,251.9c-2.1,2-2.4,5.4-1.2,8c1.1,2,3.1,3.4,5.4,3.7c3.7,0.5,7.9,0,10.7-2.8c2.5-2.4,3.4-6,3.7-9.4
	c-3.6-1.5-7.4-2.2-11.3-2C676.8,249.5,674,249.9,672.1,251.9L672.1,251.9z"/>
<path class="st0" d="M729.7,224.5c3.7-1.5,7.8-1.8,11.8-0.9c4,0.9,7.4,3.5,9.3,7.1c2.4,4.5,2.6,9.8,2.5,14.8c0,8.2,0,16.5,0,24.7
	c-3.6,0.1-7.2,0-10.9,0c0-8,0-15.9,0-23.9c0.1-3.3,0-6.8-1.7-9.8c-1.2-2-3.2-3.4-5.6-3.7c-3.5-0.5-7.5,0.4-9.8,3.3
	c-2.6,3.1-2.9,7.3-2.8,11.1c0,7.7,0,15.3,0,23h-10.7c0-15.2,0-30.5,0-45.7h10.4c0,2.3,0,4.6,0,6.9
	C723.8,228.3,726.4,225.9,729.7,224.5z"/>
<path class="st0" d="M428.1,224.7c3.4-1.3,7.2-0.9,10.7-0.1c0.1,3.5,0,7,0.1,10.4c-4.4-1.1-9.4-1.8-13.5,0.6s-5.5,7.3-5.7,11.7
	c0,7.7,0,15.3,0,23h-10.9c0-15.2,0-30.5,0-45.7h10.2c0.2,2.6,0.2,5.2,0.1,7.8c-0.4,0,0.2,1.5,0.4,0.9
	C421.1,229.3,424.2,226.2,428.1,224.7z"/>
<path class="st0" d="M289,224.5c3.6,0,7.1,0,10.7,0c0.1,15.2,0,30.5,0,45.7H289C289,255,289,239.7,289,224.5z"/>
<path class="st0" d="M305.8,224.5c3.7,0,7.3,0,11,0c4.3,11.1,8.6,22.1,13,33.2c4.3-11.1,8.6-22.1,12.8-33.2c3.5,0,6.9,0,10.4,0
	c-5.9,15.2-12.1,30.4-18,45.7c-3.7,0.1-7.4,0-11,0.1C317.9,255,311.8,239.7,305.8,224.5z"/>
<path class="st0" d="M526.2,224.5c3.7,0,7.3,0,11,0c4.8,10.6,9.4,21.4,14.3,32c4.4-10.7,8.9-21.3,13.2-32h10.5
	c-6.2,15-12.5,29.9-18.7,44.9c-2.2,5.2-4.8,10.5-9.1,14.3c-3.2,2.8-7.5,3.9-11.7,3.9c-2.7-0.1-5.4-0.7-8-1.6c0-3.2,0-6.4,0-9.7
	c3.7,1.2,7.7,2.4,11.5,0.9c3.5-1.3,5.1-5,6.6-8.2C539.3,254.1,532.7,239.3,526.2,224.5z"/>
<rect x="36.8" y="186.8" class="st1" width="736.2" height="120.2"/>
</svg>
