<?xml version="1.0" encoding="UTF-8" standalone="no"?>
<svg
   xmlns:dc="http://purl.org/dc/elements/1.1/"
   xmlns:cc="http://creativecommons.org/ns#"
   xmlns:rdf="http://www.w3.org/1999/02/22-rdf-syntax-ns#"
   xmlns:svg="http://www.w3.org/2000/svg"
   xmlns="http://www.w3.org/2000/svg"
   xmlns:sodipodi="http://sodipodi.sourceforge.net/DTD/sodipodi-0.dtd"
   xmlns:inkscape="http://www.inkscape.org/namespaces/inkscape"
   width="1000"
   height="305.90057"
   viewBox="0 0 1000 305.90057"
   version="1.1"
   id="svg6"
   sodipodi:docname="logo.svg"
   style="fill:none"
   inkscape:version="0.92.4 (5da689c313, 2019-01-14)">
  <metadata
     id="metadata12">
    <rdf:RDF>
      <cc:Work
         rdf:about="">
        <dc:format>image/svg+xml</dc:format>
        <dc:type
           rdf:resource="http://purl.org/dc/dcmitype/StillImage" />
        <dc:title></dc:title>
      </cc:Work>
    </rdf:RDF>
  </metadata>
  <defs
     id="defs10" />
  <sodipodi:namedview
     pagecolor="#ffffff"
     bordercolor="#111111"
     borderopacity="1"
     objecttolerance="10"
     gridtolerance="10"
     guidetolerance="10"
     inkscape:pageopacity="0"
     inkscape:pageshadow="2"
     inkscape:window-width="1920"
     inkscape:window-height="1017"
     id="namedview8"
     showgrid="false"
     fit-margin-top="0"
     fit-margin-left="0"
     fit-margin-right="0"
     fit-margin-bottom="0"
     inkscape:zoom="0.71336207"
     inkscape:cx="586.12681"
     inkscape:cy="-1.5440344"
     inkscape:window-x="1912"
     inkscape:window-y="-8"
     inkscape:window-maximized="1"
     inkscape:current-layer="svg6" />
  <path
     d="m 86.505711,171.59246 c 0,21.84992 -19.085101,34.95418 -41.654586,34.95418 -10.195306,0 -19.373117,-2.47758 -27.533517,-7.28704 C 10.606426,195.10703 5.7451509,189.62946 2.713283,182.81569 2.6207833,182.62001 1.0894183,179.31054 0,174.48038 l 27.543776,-7.13273 0.03086,0.12328 c 3.042144,7.256 9.712205,11.6853 17.564245,11.6853 6.844802,0 10.195393,-2.03448 10.195393,-6.2586 0,-3.93619 -3.782141,-5.82757 -12.528315,-8.16032 L 31.449191,161.53043 C 15.282699,156.86493 6.3926551,146.66928 6.3926551,130.9452 5.9507171,111.7151 25.036025,99.04359 45.138881,99.34101 c 7.718419,0 14.861324,1.89137 21.706126,5.53963 4.563258,2.42586 8.201521,5.71464 10.863321,9.78445 2.065854,2.98016 3.83352,7.431 4.809896,11.54133 l -25.210682,6.48532 v -0.031 l -0.07198,0.031 c -2.034993,-5.09739 -5.827392,-7.5741 -11.356682,-7.5741 -4.511793,0 -8.304279,1.60258 -8.304279,5.09739 0,3.49395 3.782141,5.24136 11.356682,7.43101 l 10.925045,3.06205 c 17.769847,4.9543 26.659728,15.29305 26.659728,30.87403 z M 200.99752,152.94857 c -0.44224,29.56885 23.15509,54.18341 54.76876,53.59807 31.60334,0.58534 55.20066,-24.02922 54.76963,-53.59807 0.43103,-29.568 -23.15595,-54.18256 -54.76963,-53.59722 -31.60333,-0.58534 -55.20065,24.02922 -54.76876,53.59722 z m 78.36609,0 c 0,13.5465 -8.59221,24.75939 -23.59733,24.75939 -15.00511,0 -23.59732,-11.21289 -23.59732,-24.75939 0,-13.54564 8.59221,-24.75853 23.59732,-24.75853 15.00512,0 23.59733,11.21289 23.59733,24.75853 z m 43.41277,-51.23343 v 101.96341 h 30.58523 v -28.69472 h 20.3913 c 21.84992,0 36.12487,-15.43701 36.12487,-36.85504 0,-21.41802 -14.27495,-36.41365 -36.12487,-36.41365 z m 55.92996,36.81451 c 0,5.24136 -3.20688,9.03359 -10.33961,9.03359 h -15.00512 v -17.91373 h 15.00512 c 7.13273,0 10.33961,3.78189 10.33961,8.89049 z M 158.66406,101.72548 v 38.81882 l -32.10677,8.31376 V 101.72548 H 95.971193 v 101.96341 h 30.586097 v -27.86196 l 32.10677,-8.31463 v 36.17659 h 30.58609 V 101.72548 Z m 265.08867,101.95307 h 52.14808 c 20.83268,0 34.08004,-12.38444 34.08004,-29.42403 0,-14.41977 -8.16031,-22.86802 -17.48183,-26.36197 5.82756,-4.66636 8.73617,-11.21289 8.73617,-19.51717 0,-15.43701 -13.10426,-26.6499 -33.0628,-26.6499 h -44.43001 v 101.96341 z m 30.58609,-63.07304 v -13.98788 h 9.46548 c 5.24136,0 7.86204,3.06292 7.86204,6.98877 0,3.92584 -2.62068,6.98876 -7.86204,6.98876 h -9.46548 z m 0,38.01624 v -14.41892 h 15.73442 c 5.97153,0 9.32238,2.90861 9.32238,7.13274 0,4.80946 -3.06292,7.28618 -9.32238,7.28618 z m 162.99077,-25.93008 c -0.44138,29.56885 23.15595,54.18342 54.76962,53.59721 21.99388,0 39.33175,-10.33875 48.49896,-27.67662 l -27.82059,-13.40253 c -4.22412,8.16031 -11.21289,12.23099 -20.67837,12.23099 -14.86115,0 -23.59732,-11.65513 -23.59732,-24.75939 0,-13.1034 8.73617,-24.75853 23.59732,-24.75853 9.46548,0 16.45425,4.08015 20.67837,12.23099 l 27.82059,-13.40254 c -9.17755,-17.33787 -26.50508,-27.67748 -48.49896,-27.67748 -31.60333,-0.58535 -55.20065,24.02922 -54.76962,53.59721 z m 113.03233,50.97653 h 30.5861 v -42.24036 h 9.76375 l 22.28182,42.24036 h 35.82745 l -30.58609,-54.91272 27.82144,-47.05069 h -34.08004 l -31.02833,53.45411 v -53.45411 h -30.5861 z m -109.39355,0 h -32.3335 l -5.89912,-16.16631 -36.84469,9.53789 -2.41551,6.61894 h -32.33263 l 42.24036,-101.96427 h 25.34473 l 42.24036,101.96427 z m -47.29724,-40.78088 -7.61549,-19.66113 -9.30169,24.04991 16.91718,-4.37843 z"
     id="path2"
     style="fill:#000000;stroke-width:8.62065697"
     inkscape:connector-curvature="0" />
  <path
     d="m 978.74634,168.24334 h -5.43101 l 9.68099,-7.98618 c 6.7155,-5.53964 9.64652,-14.65512 6.86205,-22.89819 -2.88792,-8.55083 -10.62927,-14.10081 -19.612,-14.10081 h -85.85313 c -1.61206,0 -2.40516,-1.95258 -1.26723,-3.08275 l 56.98254,-56.03332 c 0.69828,-0.68853 1.84482,0.0925 1.45689,0.99689 l -19.83613,46.42353 h 25.43956 L 994.83249,0 H 971.97912 L 858.88213,111.20303 c -6.23877,6.13532 -7.96548,15.43701 -4.2655,23.44302 3.44309,7.45083 11.14737,12.00426 19.35424,12.00426 h 83.74107 c 1.68102,0 2.44826,2.11724 1.13792,3.1862 l -19.46544,16.05339 c -2.88792,2.38447 -5.15515,5.41636 -6.62929,8.85945 l -7.21549,16.88528 h 41.19812 c 1.68103,0 2.43965,2.11723 1.13793,3.18619 l -84.01693,69.18854 c -0.73275,0.59568 -1.76723,-0.18535 -1.39654,-1.04827 l 30.4654,-71.32646 2.60344,-6.09394 11.62065,-27.19473 h -25.43094 l -63.0446,147.55462 h 31.1223 L 992.42732,204.91389 c 6.93963,-5.71464 9.38788,-14.92322 6.18101,-23.35078 -3.09481,-8.13962 -11.16375,-13.31977 -19.87061,-13.31977 z"
     id="path4"
     inkscape:connector-curvature="0"
     style="fill:#ff3407;stroke-width:8.62065697" />
</svg>
