<?xml version="1.0" encoding="UTF-8"?>
<svg version="1.1" viewBox="0 0 1024 1024" width="1024" height="1024" xmlns="http://www.w3.org/2000/svg">
<path transform="translate(0)" d="m0 0h1024v1024h-1024z" fill="#2A2628"/>
<path transform="translate(481,154)" d="m0 0h60l20 2 29 5 27 7 29 10 24 11 19 10 14 8 15 10 17 13 10 8 12 11 8 7 12 12 9 11 11 14 14 20 9 15 14 27 10 22 12 36 7 28 5 29 2 18v47l-3 28-4 23-6 24-11 33-11 25-14 27-12 19-9 13-4 8 7 2 3 3v5l-1 1-17 2-8 5-9 10-8 7-12 11-14 11-13 10-26 17-22 12-23 11-24 9-19 6-35 8-23 3-12 1h-55l-27-3-28-5-26-7-30-11-26-12-23-13-10-6-15-10-13-10-14-12-15-14-7-7v-2h-2l-7-8-11-13-13-18-11-17-11-19-8-16-9-20-8-21-7-24-6-28-4-29-1-18v-29l4-36 6-31 6-23 10-28 9-22 13-27 11-19 5-10-5-6-6-5-4-8 2-6 4-4h2l2-4 6-10 7-6 9-3 24-3 14-3 8-6 10-9 15-11 14-9 23-13 29-14 27-10 24-7 22-5z" fill="#F1F0E5"/>
<path transform="translate(408,232)" d="m0 0h1v15l-1 38 1 15 6 21 6 16 2 7-8 2-36 13-11 3 2-6 7-13 12-18 9-12-1-13-2-10v-24l-16 11-12 11-7 7-5 4-11 14-12 17-13 22-9 21-7 21-5 23-3 24v30l2 19 4 17 8 23 9 20 13 25 10 15 12 17 14 17 9 11 15 16 12 11 8 6 6 4-4-6-14-18-10-15-11-18-11-23-9-24-6-21-3-25v-39l3-24 2-5 5 2 11 7 17 7 17 4h22l-3-6-4-3-6-1 1-5 9-15 16-23 11-15 13-18v-3l9 3 16 6 14 3h24l16-4 15-7-2 5-12 13-7 10-3 6h2l1 10h-3l3 10v15l-3 24-2 10-7 12-3 5h-2l-4-11-11-16-5-15-1-10-10 9-5 4-7 8-10 9-9 11-11 14-7 11-7 14-3 12-2 15v12l2 10 6 10 6 7 11 6 4 1h20l17-5 19-9 23-14 15-10 16-9 25-14 18-8 20-7 5-1-17 17-11 15-11 17-8 17-5 3-13 5-27 13-21 9-20 7-29 8-6 3h-2l2 5h15l25-6 28-10 16-7 20-10 6-1-1 4-10 21-4 15-2 10h-89l-4 2-1 3 10 2 19 3 18 2 40 2 8 1 2 12 7 17 7 16-4 1-18-8-27-11-37-14-15-6-4-1v8l19 10 30 12 30 13 19 8 13 4 12 22 9 16 14 19 10 13 2 5-9-3-17-6-20-9-22-12-28-17-12-8-14-10-15-11-11-7-14-10-17-10-11-6-24-15-14-10-12-10-10-8-10-9-15-15-3-2v-2h-2l-7-8-11-12-12-17-13-20-12-23-11-26-6-20-4-20-2-17v-42l2-20 3-16 8-27 13-29 11-19 10-14 11-13 12-13 12-12 13-10 14-10 13-8z" fill="#2A2628"/>
<path transform="translate(490,212)" d="m0 0h49l25 2 21 4 32 10 14 7-3 3-9 6-14 11-10 9-12 11-10 12-9 12-15 23-5 10 9-2 7-4 11-11 8-10 9-10 7-8 20-20 14-11 6-3 3 5-2 5-8 16-15 29-9 14-8 12-14 18-8 9-10 7-16 8-15 5-12 2h-18l-14-3-15-6-11-7-10-9-9-10-9-14-5-10-5-17-2-17v-13l1-23 3-24 3-5 18-5 22-5z" fill="#2A2628"/>
<path transform="translate(744,640)" d="m0 0h17l6 12 8 9 10 8 5 8 1 6-4 10-6 6h-172l-7-7-3-8 1-6 4-6 5-6 8-7 7-7 6-11z" fill="#2A2628"/>
<path transform="translate(665,510)" d="m0 0h61l1 13 3 35 4 22 6 18 8 16 9 12v1h-122l2-4 8-12 7-17 6-22 3-16 3-35z" fill="#2A2628"/>
<path transform="translate(736,363)" d="m0 0h35l5 5-2 5-13 18-6 10-10 19-6 16-86 1-7-15-11-20-10-16-11-16 1-5 1-1z" fill="#2A2628"/>
<path transform="translate(602,713)" d="m0 0h183l1 2 1 24h-186v-23z" fill="#2A2628"/>
<path transform="translate(504,236)" d="m0 0h9l9 2 9 5 8 8 5 10 2 10-1 9-6 12-5 6-12 7-7 2h-13l-11-4-8-6-7-8-3-7-1-6v-10l3-10 6-8 7-6 8-4z" fill="#F2F1E6"/>
<path transform="translate(425,350)" d="m0 0 5 2 9 12 7 7v1l-7 2-13 12-10 8-14 11-15 13-10 9-8 7-7 6-4-2-7-7-6-7 1-3 13-8 44-26 17-12 11-8 1-5-10 3-17 8-40 24-24 13-3-1-6-11-3-6 1-3 27-11 25-9 25-10 17-8z" fill="#2A2628"/>
<path transform="translate(756,474)" d="m0 0h10l6 4 2 4v7l-3 5-4 2-103 1h-39l-5-3-4-5v-9l6-5h18l28 1h52l26-1z" fill="#2A2628"/>
<path transform="translate(682,278)" d="m0 0h26v15l-1 9 26-1v26h-23l-2-1v22l-2 1h-23v-22h-25l-1-25h26z" fill="#2A2628"/>
<path transform="translate(246,267)" d="m0 0 87 1-5 5-12 13-9 10h-23l-47-4-1-5 1-13v-5l1-1z" fill="#2A2628"/>
<path transform="translate(262,345)" d="m0 0h16l-9 26-1 2-13 2-44 8h-6v-9l-4-21 4-2z" fill="#2A2628"/>
<path transform="translate(229,303)" d="m0 0 15 2 26 2 21 1 7 1-2 5-9 14-2 4-18 2-46 3h-11l2-4 7-9 9-20z" fill="#2A2628"/>
<path transform="translate(448,375)" d="m0 0 9 5 4 4-6 2-10 11-7 8-11 14-15 20-14 21-14-5-10-5 2-4 21-21 8-7 15-14 10-9 9-9 7-8z" fill="#2A2628"/>
<path transform="translate(258,385)" d="m0 0h6l-4 20-1 9-8 3-20 7-13 5h-3l-6-22-4-9v-2l26-5z" fill="#2A2628"/>
<path transform="translate(651,449)" d="m0 0h89l1 1v14h-91l-1-5 1-9z" fill="#2A2628"/>
<path transform="translate(507,251)" d="m0 0 7 1 8 4 6 7 1 3v10l-4 8-6 5-9 3-9-1-6-4-6-9-1-7 3-9 7-8z" fill="#2A2628"/>
<path transform="translate(339,691)" d="m0 0h10l8 4 5 6 2 6-1 9-7 8-8 3h-9l-8-4-5-6-2-6 1-8 6-8z" fill="#2A2628"/>
<path transform="translate(254,427)" d="m0 0h4l-1 25-2 4-24 13-3-1-6-15-4-11 8-4 20-8z" fill="#2A2628"/>
<path transform="translate(254,469)" d="m0 0 4 1 1 18 2 14v7l-3 1h-13l-4-9-8-16 1-4 18-11z" fill="#2A2628"/>
<path transform="translate(273,620)" d="m0 0h11l5 4 2 4-1 7-6 8-9 3-6-1-5-4-1-2v-8l4-7z" fill="#2A2628"/>
<path transform="translate(296,669)" d="m0 0h8l6 3 3 4-1 6-4 5-2 1h-7l-5-3-3-3-1-6 4-6z" fill="#2A2628"/>
</svg>
